<?xml version="1.0" encoding="utf-8"?>
<!-- Generator: Adobe Illustrator 17.1.0, SVG Export Plug-In . SVG Version: 6.00 Build 0)  -->
<!DOCTYPE svg PUBLIC "-//W3C//DTD SVG 1.1//EN" "http://www.w3.org/Graphics/SVG/1.1/DTD/svg11.dtd">
<svg version="1.1"
	 id="svg16" inkscape:version="0.92.1 r15371" sodipodi:docname="logo.svg" xmlns:dc="http://purl.org/dc/elements/1.1/" xmlns:cc="http://creativecommons.org/ns#" xmlns:rdf="http://www.w3.org/1999/02/22-rdf-syntax-ns#" xmlns:svg="http://www.w3.org/2000/svg" xmlns:sodipodi="http://sodipodi.sourceforge.net/DTD/sodipodi-0.dtd" xmlns:inkscape="http://www.inkscape.org/namespaces/inkscape"
	 xmlns="http://www.w3.org/2000/svg" xmlns:xlink="http://www.w3.org/1999/xlink" x="0px" y="0px" viewBox="0 0 364 89"
	 enable-background="new 0 0 364 89" xml:space="preserve">
<sodipodi:namedview  id="namedview18" inkscape:current-layer="svg16" inkscape:window-y="-4" inkscape:window-x="-4" inkscape:window-height="1017" inkscape:window-width="2560" inkscape:pageshadow="2" inkscape:pageopacity="0" inkscape:window-maximized="1" borderopacity="1" inkscape:zoom="6.6016484" pagecolor="#ffffff" bordercolor="#666666" showgrid="false" guidetolerance="10" inkscape:cy="44.5" gridtolerance="10" inkscape:cx="182" objecttolerance="10">
	</sodipodi:namedview>
<image display="none" overflow="visible" width="364" height="89" xlink:href="logo_364x89.png"  transform="matrix(0.9999 0 0 0.9999 2.275635e-002 5.565274e-003)">
</image>
<path id="path12" fill="#00AA50" d="M73.6,0H0v51.2h0v0.9C0,72.4,16.5,89,36.8,89c20.3,0,36.8-16.5,36.8-36.8L73.6,0z M60,19.3
	l2.6,3.1H31.4v-3.1H60z M12.2,19.3h17.7v8.5H12.2V19.3z M31.4,23.9H63v10.8H31.4V23.9z M13.4,17.7l4.6-3.1h6.1l4.6,3.1H13.4z
	 M19.1,13.1V10H23v3.1H19.1z M19.1,8.5c0-1.1,0.9-1.9,1.9-1.9c1.1,0,1.9,0.9,1.9,1.9H19.1z M20.3,1.9v3.2c-1.5,0.3-2.7,1.7-2.7,3.4
	l0,0V10h0v3.1h0v0v0l-6.9,4.6l0,0H9.1v1.5h1.5v24.6h1.5V29.3h2.3v14.6H16V29.3h2.3v14.6h1.5V29.3h2.3v14.6h1.5V29.3H26v14.6h1.5
	V29.3h2.3v14.6h1.5v-7.7H63v7.7h1.5v-7.7l0,0v-1.5l0,0V23.9l0,0v-1.5l-3.8-4.6l0,0v0H31.4h0l-6.9-4.6v0h0V10h0V8.5l0,0
	c0-1.7-1.2-3-2.7-3.4V1.9h49.9v42H1.9v-42H20.3z M10.2,74.8c0.8-2.6,2-5,3.5-7.2c0.2,0.1,0.4,0.3,0.6,0.5c1,0.6,1.9,0.9,2.8,0.8
	c1-0.1,1.7-0.7,2.3-1.2c0.6-0.5,1-1.1,1-1.1l0.2-0.3l-0.3-0.3c0,0-0.1-0.1-0.2-0.3c0.9,0,1.7-0.4,2.3-0.8c0.6-0.4,1.1-0.8,1.1-0.9
	l0.3-0.2l-0.2-0.4c0,0-0.1-0.1-0.2-0.3c0.9,0.2,1.8-0.1,2.5-0.4c0.7-0.3,1.2-0.6,1.2-0.7l0.3-0.2l-0.1-0.4c0,0,0-0.1-0.1-0.4
	c0.9,0.3,1.8,0.2,2.5,0c0.7-0.2,1.3-0.4,1.3-0.4l0.3-0.2l0-0.4c0,0,0-0.2,0-0.4c0.8,0.4,1.7,0.5,2.4,0.5c0.7,0,1.3-0.2,1.4-0.2
	l0.4-0.1l0-0.4c0,0,0-0.2,0-0.4c0.7,0.6,1.6,0.8,2.3,0.9c0.7,0.1,1.3,0.1,1.4,0.1l0.4,0l0.1-0.4l0,0c2.9,0.3,5.6,1.2,8.2,2.6
	c2.5,1.3,4.9,3.1,6.8,5.3c1.9,2.2,3.4,4.7,4.4,7.3c0.4,1.2,0.8,2.4,1,3.6c-1.8,1.6-3.8,3.1-5.9,4.3c-0.3-0.1-0.6-0.2-0.9-0.4
	c-0.3-0.2-0.6-0.6-0.7-1.1c-0.1-0.4,0.1-0.8,0.3-1.2c0.3-0.4,0.7-0.8,1.2-0.9l0.8-0.2l-0.2-0.8c-0.5-1.6-1.2-3.1-2.1-4.6l-0.4-0.7
	L51.5,73c-0.4,0.3-0.9,0.3-1.2,0.3c-0.1,0-0.2,0-0.3,0c-0.3,0-0.8-0.2-1.1-0.5c-0.3-0.4-0.4-0.9-0.4-1.2c0-0.5,0.2-1,0.5-1.4
	l0.5-0.6L48.9,69c-1.3-1.1-2.7-2-4.2-2.7L43.9,66l-0.3,0.7c-0.2,0.5-0.6,0.8-1,1.1c-0.4,0.2-0.8,0.3-1.2,0.2c-0.5-0.1-0.8-0.5-1-0.8
	c-0.3-0.5-0.4-1-0.3-1.5l0.1-0.8l-0.8-0.1c-1.6-0.2-3.4-0.2-5,0L33.5,65l0.1,0.8c0.1,0.5,0,1-0.3,1.5c-0.2,0.3-0.5,0.6-1,0.8
	c-0.4,0.1-0.8,0.1-1.2-0.1c-0.5-0.2-0.9-0.6-1.1-1l-0.3-0.7L29,66.5c-1.5,0.7-2.9,1.7-4.2,2.8l-0.6,0.5l0.5,0.6
	c0.3,0.4,0.5,0.9,0.5,1.4c0,0.5-0.1,0.9-0.4,1.2c-0.3,0.3-0.6,0.5-1.1,0.6c-0.5,0.1-1,0-1.5-0.3l-0.7-0.4l-0.4,0.7
	c-0.9,1.4-1.6,3-2.1,4.6l-0.2,0.8l0.8,0.2c0.5,0.1,0.9,0.5,1.2,0.9c0.3,0.4,0.4,0.8,0.3,1.2c-0.1,0.5-0.4,0.9-0.6,1.1
	c-0.2,0.2-0.5,0.3-0.7,0.4C16.1,80.6,12.9,77.9,10.2,74.8z M33.1,53.5c-0.2,0.3-0.5,0.5-0.8,0.6c-0.7,0.1-1.4,0.3-2.2,0.4
	c-0.1-0.2-0.2-0.4-0.2-0.7c-0.1-0.6-0.2-1.4,0.3-2c0.7-0.9,2.4-1.2,3.5-1.3c0,0.1,0,0.2,0,0.4C33.8,51.6,33.8,52.8,33.1,53.5z
	 M34.4,58.3c0,0.1,0,0.3,0,0.4c-0.8,0.1-2.1,0.2-2.9-0.3c-0.6-0.4-0.9-1.2-1-1.7c-0.1-0.3-0.1-0.5-0.1-0.7c0.7-0.2,1.3-0.3,2-0.4
	c0.4,0,0.7,0.1,1,0.4C34.2,56.5,34.4,57.7,34.4,58.3z M30.1,59.1c0,0.1,0.1,0.3,0.1,0.4c-0.7,0.2-2,0.6-2.9,0.2
	c-0.6-0.3-1.1-1-1.3-1.5c-0.1-0.3-0.2-0.5-0.2-0.7c0.6-0.3,1.2-0.5,1.9-0.7c0.4,0,0.7,0,1,0.2C29.5,57.3,29.9,58.5,30.1,59.1z
	 M28,54.6c-0.2,0.3-0.4,0.5-0.7,0.7c-0.7,0.2-1.4,0.5-2.1,0.8c-0.1-0.2-0.2-0.4-0.3-0.6c-0.2-0.5-0.5-1.3-0.1-2
	c0.5-1,2.2-1.7,3.2-1.9c0,0.1,0.1,0.2,0.1,0.4C28.3,52.6,28.5,53.8,28,54.6z M26,60.7c0.1,0.1,0.1,0.3,0.2,0.4
	c-0.7,0.4-1.8,0.9-2.8,0.7c-0.7-0.2-1.2-0.8-1.6-1.3c-0.2-0.2-0.3-0.5-0.4-0.7c0.6-0.4,1.1-0.7,1.7-1c0.4-0.1,0.7-0.1,1.1,0
	C25.1,59,25.7,60.1,26,60.7z M23.1,56.6c-0.1,0.3-0.3,0.6-0.6,0.8c-0.6,0.4-1.3,0.7-1.9,1.2c-0.1-0.1-0.3-0.3-0.4-0.6
	c-0.3-0.5-0.7-1.2-0.4-2c0.2-0.5,0.6-1,1.2-1.5c0.5-0.4,1.2-0.8,1.6-1c0.1,0.1,0.1,0.2,0.2,0.3C23.1,54.6,23.5,55.7,23.1,56.6z
	 M20.2,61.4c0.9,0.1,1.7,1,2.1,1.6c0.1,0.1,0.2,0.2,0.2,0.3c-0.6,0.5-1.7,1.3-2.6,1.2c-0.7,0-1.3-0.5-1.8-1
	c-0.2-0.2-0.4-0.4-0.5-0.6c0.5-0.5,1-0.9,1.5-1.3C19.5,61.4,19.8,61.3,20.2,61.4z M18.7,59.4c-0.1,0.3-0.2,0.6-0.4,0.9
	c-0.6,0.5-1.1,1-1.7,1.5c-0.2-0.1-0.3-0.3-0.5-0.5l0,0c-0.4-0.4-0.9-1.1-0.8-1.9c0.1-1.1,1.5-2.3,2.3-2.9c0.1,0.1,0.2,0.2,0.2,0.3
	C18.3,57.4,18.9,58.5,18.7,59.4z M15.6,65c0.3-0.2,0.7-0.4,1-0.4c0.9-0.1,1.9,0.7,2.3,1.2c0.1,0.1,0.2,0.2,0.3,0.3
	c-0.5,0.6-1.4,1.5-2.4,1.6c-0.7,0.1-1.4-0.3-1.9-0.6c-0.2-0.2-0.4-0.4-0.6-0.5C14.8,66.1,15.2,65.5,15.6,65z M14.6,64
	c-0.5,0.6-0.9,1.1-1.4,1.8c-0.2-0.1-0.4-0.2-0.6-0.4l0,0c-0.5-0.3-1.1-0.9-1.1-1.7c-0.1-1.1,1-2.5,1.8-3.2c0.1,0.1,0.2,0.2,0.3,0.3
	c0.5,0.5,1.3,1.4,1.2,2.4C14.8,63.3,14.7,63.7,14.6,64z M38.4,53.3c-0.3,0.2-0.6,0.4-1,0.4c-0.7,0-1.5,0-2.2,0
	c0-0.2-0.1-0.4-0.1-0.7c0-0.6,0-1.4,0.6-1.9c0.8-0.8,2.6-0.8,3.6-0.7c0,0.1,0,0.2,0,0.4C39.4,51.5,39.1,52.7,38.4,53.3z M38.8,58.3
	c0,0.1,0,0.3,0,0.4c-0.8,0-2.1-0.1-2.8-0.8c-0.5-0.5-0.7-1.3-0.7-1.9c0-0.3,0-0.5,0-0.7c0.7,0,1.4,0,2.1,0c0.3,0.1,0.6,0.3,0.9,0.5
	C38.9,56.4,38.9,57.6,38.8,58.3z M64.5,73.4c-0.9-2.8-2.3-5.4-4-7.7c-3.6-5-8.9-8.8-14.8-10.6c-0.2-0.4-0.6-0.9-1.2-1.5
	c-0.6-0.5-1.3-0.9-2.2-1.1c-0.7-0.1-1.4,0-2,0.2c0.2-0.4,0.3-0.8,0.4-1.2c3.8,0.5,7.5,1.6,10.9,3.4c3.4,1.8,6.4,4.2,9,7
	c2.4,2.7,4.3,5.7,5.6,9.1C65.6,71.9,65.1,72.7,64.5,73.4z M42.1,53.7c1.1,0.2,2.1,1.2,2.5,1.9c-0.8,0.3-1.9,0.8-2.9,0.6
	c-1-0.2-1.8-1-2.2-1.5l0-0.1C40,54.1,41,53.5,42.1,53.7z M27.7,83.3c0-5.1,4.2-9.3,9.3-9.3c5.1,0,9.3,4.2,9.3,9.3
	c0,0.9-0.1,1.8-0.4,2.6c-0.9,0.2-1.9,0.5-2.8,0.6c0.5-1,0.8-2.1,0.8-3.2c0-3.8-3.1-6.9-6.9-6.9c-3.8,0-6.9,3.1-6.9,6.9
	c0,1.2,0.3,2.3,0.8,3.3c-1-0.2-1.9-0.4-2.8-0.6C27.8,85.1,27.7,84.2,27.7,83.3z M36.9,72.4c-6,0-10.9,4.9-10.9,10.9
	c0,0.7,0.1,1.5,0.2,2.2c-1.7-0.5-3.3-1.2-4.8-1.9c0,0,0.1-0.1,0.1-0.1c0.7-0.6,1.1-1.3,1.2-2.1c0.1-0.8-0.1-1.6-0.6-2.3
	c-0.3-0.5-0.8-0.9-1.3-1.2c0.3-1,0.8-2,1.3-2.9c0.6,0.2,1.2,0.3,1.8,0.2c0.9-0.1,1.6-0.5,2.1-1.1c0.5-0.6,0.8-1.4,0.8-2.3
	c0-0.6-0.2-1.2-0.4-1.7c0.8-0.7,1.7-1.2,2.7-1.7c0.4,0.5,0.8,0.8,1.4,1.1c0.8,0.4,1.6,0.5,2.4,0.2c0.8-0.2,1.4-0.8,1.9-1.5
	c0.3-0.5,0.5-1.1,0.5-1.7c1.1-0.1,2.1-0.1,3.2,0c0.1,0.6,0.3,1.2,0.6,1.7c0.5,0.7,1.1,1.3,1.9,1.5c0.8,0.2,1.6,0.1,2.4-0.3
	c0.5-0.3,1-0.7,1.4-1.1c0.9,0.5,1.8,1.1,2.7,1.7c-0.3,0.5-0.4,1.1-0.4,1.7c0,0.9,0.3,1.7,0.8,2.3c0.5,0.6,1.3,1,2.1,1.1
	c0.6,0.1,1.2,0,1.8-0.2c0.5,0.9,1,1.9,1.3,2.9c-0.5,0.3-0.9,0.7-1.3,1.2c-0.5,0.7-0.7,1.5-0.6,2.3c0.1,0.8,0.5,1.5,1.2,2.1
	c0.1,0,0.1,0.1,0.2,0.1c-1.6,0.8-3.2,1.5-4.9,2c0.1-0.7,0.2-1.4,0.2-2.1C47.8,77.3,42.9,72.4,36.9,72.4z M33,86.9
	c-0.9-0.9-1.4-2.2-1.4-3.6c0-2.9,2.4-5.3,5.3-5.3c2.9,0,5.3,2.4,5.3,5.3c0,1.4-0.5,2.6-1.4,3.5c-1.3,0.2-2.7,0.2-4,0.2
	C35.5,87.1,34.3,87,33,86.9z M61.4,77c-0.2-1-0.5-2-0.9-2.9c-1.1-2.9-2.7-5.5-4.7-7.8c-2-2.3-4.5-4.2-7.2-5.6
	c-2.7-1.4-5.6-2.3-8.7-2.7c0-0.4,0-0.8,0-1.3c0.4,0.3,1,0.6,1.6,0.7c0.8,0.1,1.5,0,2.2-0.2c0.7-0.2,1.3-0.5,1.7-0.6
	c5.6,1.8,10.5,5.4,14,10.1c1.7,2.4,3.1,5,4,7.8c0.1,0.1,0.1,0.3,0.1,0.4C62.7,75.5,62.1,76.3,61.4,77z M67.1,69.5
	c-1.4-3.1-3.2-6-5.5-8.5c-2.7-3-5.9-5.5-9.4-7.4c-3.5-1.9-7.4-3.1-11.4-3.6l0-0.1l0-0.4l-0.5-0.1c-0.1,0-0.9-0.2-2-0.2
	c-1.1,0-2.4,0.3-3.3,0.9c0-0.2-0.1-0.4-0.1-0.4l-0.1-0.4l-0.5,0c-0.1,0-1,0-2,0.2c-1.1,0.2-2.3,0.7-3.1,1.5
	c-0.1-0.2-0.1-0.4-0.1-0.4L29,50.3l-0.5,0.1c-0.1,0-0.9,0.1-1.9,0.5c-1,0.4-2.2,1.1-2.7,2c-0.1-0.2-0.2-0.3-0.2-0.3l-0.2-0.4
	l-0.5,0.2c-0.1,0-0.9,0.3-1.8,0.9c-0.9,0.6-1.9,1.4-2.3,2.5c-0.1-0.2-0.2-0.3-0.3-0.3L18.1,55l-0.5,0.2c-0.1,0-0.8,0.4-1.6,1.2
	c-0.8,0.7-1.6,1.7-1.9,2.8c-0.2-0.2-0.3-0.2-0.3-0.2l-0.4-0.3L13,59.1c-0.1,0-0.8,0.6-1.5,1.5c-0.7,0.9-1.3,2.1-1.3,3.3
	c0.1,1,0.6,1.9,1.6,2.5c0.2,0.1,0.4,0.3,0.6,0.4c-1.4,2.1-2.5,4.3-3.3,6.7c-4.4-5.7-7-12.7-7.2-20.3h0v-7.7h69.8v6.7l0,0.6
	C71.6,58.9,70,64.6,67.1,69.5z M14.5,22.3H16v3.1h-1.5V22.3z M22.2,22.3h1.5v3.1h-1.5V22.3z M36.8,41.6h-1.5v-3.9h1.5V41.6z
	 M42.2,41.6h-1.5v-3.9h1.5V41.6z M47.6,41.6H46v-3.9h1.5V41.6z M53,41.6h-1.5v-3.9H53V41.6z M58.4,41.6h-1.5v-3.9h1.5V41.6z
	 M35.3,27h1.5v3.8h-1.5V27z M40.7,27h1.5v3.8h-1.5V27z M46,27h1.5v3.8H46V27z M51.4,27H53v3.8h-1.5V27z M58.4,27v3.8h-1.5V27H58.4z
	 M18.3,22.3h1.5v3.1h-1.5V22.3z M27.6,22.3v3.1H26v-3.1H27.6z"/>
<path id="path14" sodipodi:nodetypes="ssssssssssccccccccscsccssscccccccccccccccccccccccccccccccccccccccccccccccccccscsccssscccccccssssssssss" inkscape:connector-curvature="0" fill="#414042" d="
	M347.3,17.8c-9,0-16.3,7.3-16.3,16.3c0,9,7.3,16.3,16.3,16.3c9,0,16.3-7.3,16.3-16.3C363.5,25.1,356.3,17.8,347.3,17.8z M347.3,44.6
	c-5.5,0-9.9-4.7-9.9-10.4c0-5.8,4.4-10.4,9.9-10.4c5.5,0,9.9,4.7,9.9,10.4C357.2,39.9,352.7,44.6,347.3,44.6z M147.9,18.6
	L147.9,18.6l-16.8,0v31h5.7V37.5h11l0,0c7,0,10.4-3.6,10.4-9.5C158.3,22.2,155.1,18.6,147.9,18.6L147.9,18.6z M147.2,31.8h-10.3
	v-7.5h10.3c3.6,0,5,1.4,5,3.8C152.2,30.4,150.5,31.8,147.2,31.8z M254.9,18.6h-4h-0.4l-15.1,31h6.5l3.3-6.8h15.2l3.3,6.8h6.5l-15-31
	H254.9z M248.1,37.2l4.8-9.8l4.8,9.8H248.1z M216.1,34.9l-11.4-16.3h-4.4v31h5.7V30.4l0-0.4l6.8,9.8l0,0.1l3.4,4.9l3.4-4.9l0-0.1
	l6.8-9.8l0,0.4v19.3h5.7v-31h-4.4L216.1,34.9z M98.4,18.6v31h5.7V24.3h15v25.3h5.7v-31H98.4z M316.2,18.6L316.2,18.6l-16.8,0v31h5.7
	V37.5h11v0c7,0,10.4-3.6,10.4-9.5C326.5,22.2,323.3,18.6,316.2,18.6L316.2,18.6z M315.4,31.8h-10.3v-7.5h10.3c3.6,0,5,1.4,5,3.8
	C320.4,30.4,318.8,31.8,315.4,31.8z M273.9,18.6v31h5.7V24.3h14.1v-5.7H273.9z M178.9,17.8c-9,0-16.3,7.3-16.3,16.3
	c0,9,7.3,16.3,16.3,16.3c9,0,16.3-7.3,16.3-16.3C195.2,25.1,187.9,17.8,178.9,17.8z M178.9,44.6c-5.5,0-9.9-4.7-9.9-10.4
	c0-5.8,4.4-10.4,9.9-10.4c5.5,0,9.9,4.7,9.9,10.4C188.8,39.9,184.4,44.6,178.9,44.6z"/>
<g>
	<path fill="#424141" d="M101.8,62.6h0.9l3.6,8.4h-1.1l-1.1-2.5h-3.8L99.2,71h-1L101.8,62.6z M100.7,67.5h3l-1.5-3.6L100.7,67.5z"/>
	<path fill="#424141" d="M108.9,62.6h4.7v1h-3.7V71h-1V62.6z"/>
	<path fill="#424141" d="M116.2,71v-8.4c0.5,0,1.7,0,2.2,0c2.4,0,3.1,1.3,3.1,2.6c0,1.4-1,2.6-3,2.6c-0.3,0-0.8,0-1.3,0V71H116.2z
		 M117.2,63.6v3.2c0.4,0,0.8,0.1,1.2,0.1c1.2,0,2-0.6,2-1.7c0-1-0.6-1.6-1.9-1.6C118.1,63.5,117.6,63.6,117.2,63.6z"/>
	<path fill="#424141" d="M128.1,62.5c2.4,0,4.3,1.8,4.3,4.3c0,2.5-1.8,4.3-4.3,4.3s-4.3-1.8-4.3-4.3
		C123.8,64.4,125.6,62.5,128.1,62.5z M128.1,70.2c1.9,0,3.2-1.5,3.2-3.4c0-2-1.4-3.4-3.2-3.4c-1.8,0-3.2,1.4-3.2,3.4
		C124.9,68.7,126.3,70.2,128.1,70.2z"/>
	<path fill="#424141" d="M141,63.6h-4.6V71h-1v-8.4h6.6V71h-1V63.6z"/>
	<path fill="#424141" d="M145.7,71v-8.4c0.5,0,1.7,0,2.2,0c2.4,0,3.1,1.3,3.1,2.6c0,1.4-1,2.6-3,2.6c-0.3,0-0.8,0-1.3,0V71H145.7z
		 M146.7,63.6v3.2c0.4,0,0.8,0.1,1.2,0.1c1.2,0,2-0.6,2-1.7c0-1-0.6-1.6-1.9-1.6C147.7,63.5,147.1,63.6,146.7,63.6z"/>
	<path fill="#424141" d="M157.6,62.5c2.4,0,4.3,1.8,4.3,4.3c0,2.5-1.8,4.3-4.3,4.3s-4.3-1.8-4.3-4.3
		C153.3,64.4,155.1,62.5,157.6,62.5z M157.6,70.2c1.9,0,3.2-1.5,3.2-3.4c0-2-1.4-3.4-3.2-3.4c-1.8,0-3.2,1.4-3.2,3.4
		C154.4,68.7,155.8,70.2,157.6,70.2z"/>
	<path fill="#424141" d="M164.9,62.6h1l3.2,4.3l3-4.3h1V71h-1v-6.8l-3,4.2H169l-3-4.1V71h-1V62.6z"/>
	<path fill="#424141" d="M177.9,65.7c0.5,0,0.8-0.1,1.1-0.1c2.1,0,3.1,1,3.1,2.6c0,1.8-1.2,2.8-3.3,2.8c-0.7,0-1.4,0-1.9,0v-8.4h1
		V65.7z M177.9,66.7V70c0.3,0,0.6,0,1,0c1.4,0,2.1-0.6,2.1-1.8c0-1.1-0.7-1.7-2.1-1.7C178.6,66.6,178.3,66.6,177.9,66.7z
		 M183.4,62.6h1V71h-1V62.6z"/>
	<path fill="#424141" d="M188.2,62.6h1V70h3.2v-7.4h1V70h3.2v-7.4h1V71h-9.4V62.6z"/>
	<path fill="#424141" d="M206.5,63.6h-3l-0.1,1.6c-0.5,5.3-1.6,6-2.9,5.9l0-1c0.6,0.1,1.6-0.2,2-5.7l0.1-1.7h5V71h-1V63.6z"/>
	<path fill="#424141" d="M211.2,62.6h4.7v1h-3.7v2.7h3.4v1h-3.4V70h3.8v1h-4.9V62.6z"/>
	<path fill="#424141" d="M225,67.2h-4.6V71h-1v-8.4h1v3.6h4.6v-3.6h1V71h-1V67.2z"/>
	<path fill="#424141" d="M235.4,67.2h-4.6V71h-1v-8.4h1v3.6h4.6v-3.6h1V71h-1V67.2z"/>
	<path fill="#424141" d="M241.1,65.7c0.5,0,0.8-0.1,1.1-0.1c2.1,0,3.1,1,3.1,2.6c0,1.8-1.2,2.8-3.3,2.8c-0.7,0-1.4,0-1.9,0v-8.4h1
		V65.7z M241.1,66.7V70c0.3,0,0.6,0,1,0c1.4,0,2.1-0.6,2.1-1.8c0-1.1-0.7-1.7-2.1-1.7C241.9,66.6,241.5,66.6,241.1,66.7z
		 M246.7,62.6h1V71h-1V62.6z"/>
	<path fill="#424141" d="M251.4,71v-8.4h1v6.7l5.1-6.7h0.9V71h-1v-6.7l-5.1,6.7H251.4z M253.7,60.7c0.2,0.5,0.6,0.8,1.3,0.8
		c0.6,0,1.1-0.3,1.2-0.8h1c-0.1,0.9-1,1.5-2.2,1.5c-1.3,0-2.1-0.6-2.2-1.5H253.7z"/>
	<path fill="#424141" d="M269.5,66.7l3.1,4.3h-1.2l-2.5-3.5l-2.5,3.5h-1.2l3.1-4.3l-3-4.1h1.2l2.4,3.4l2.4-3.4h1.2L269.5,66.7z"/>
	<path fill="#424141" d="M278.4,62.5c2.4,0,4.3,1.8,4.3,4.3c0,2.5-1.8,4.3-4.3,4.3c-2.4,0-4.3-1.8-4.3-4.3
		C274.1,64.4,275.9,62.5,278.4,62.5z M278.4,70.2c1.9,0,3.2-1.5,3.2-3.4c0-2-1.4-3.4-3.2-3.4c-1.8,0-3.2,1.4-3.2,3.4
		C275.2,68.7,276.6,70.2,278.4,70.2z"/>
	<path fill="#424141" d="M290.6,63.6h-3l-0.1,1.6c-0.5,5.3-1.6,6-2.9,5.9l0-1c0.6,0.1,1.6-0.2,2-5.7l0.1-1.7h5V71h-1V63.6z"/>
	<path fill="#424141" d="M294.2,70h0.9c0.3-0.4,1.2-2.2,1.4-5.8l0.1-1.7h4.9V70h1.1v2.5h-1V71h-6.5v1.6h-1V70z M296.3,70h4.3v-6.5
		h-2.9l-0.1,1.5C297.3,68,296.6,69.7,296.3,70z"/>
	<path fill="#424141" d="M305.5,71v-8.4h1v6.7l5.1-6.7h0.9V71h-1v-6.7l-5.1,6.7H305.5z"/>
	<path fill="#424141" d="M321.9,67.2h-4.6V71h-1v-8.4h1v3.6h4.6v-3.6h1V71h-1V67.2z"/>
	<path fill="#424141" d="M326.6,62.6h4.7v1h-3.7V71h-1V62.6z"/>
</g>
</svg>
